kinematics
version=1
nRows=61
nColumns=17
inDegrees=yes
endheader
time	hip_flexion_l	hip_flexion_r	knee_angle_l	knee_angle_r	ankle_angle_l	ankle_angle_r	lumbar_extension	pelvis_tilt	arm_flex_l	arm_flex_r	elbow_flexion_l	elbow_flexion_r	head_flexion	pelvis_tx	pelvis_ty	pelvis_tz
4.220883	3.014965	-8.377545	3.336942	-1.539484	4.488200	1.645387	3.652228	-2.056282	1.367924	3.197902	11.531528	16.697461	144.579530	4.642994	2.573741	0.000000
4.237567	4.020397	-8.297048	2.958811	-2.261822	5.262325	2.115866	3.299154	-1.853886	1.298034	3.362403	11.306629	16.670087	144.965068	4.631747	2.577678	0.000000
4.254250	4.960655	-8.253656	2.799865	-2.554144	6.289402	2.606094	2.937757	-1.646899	1.200741	3.470357	11.007256	16.590425	145.392341	4.620293	2.581662	0.000000
4.270933	5.838068	-8.182105	2.873707	-2.496491	7.539922	3.006435	2.561635	-1.431711	1.102191	3.518640	10.663202	16.456172	145.787597	4.608559	2.585503	0.000000
4.287617	6.634644	-8.019007	3.228721	-2.188076	8.950267	3.230667	2.168239	-1.206884	1.035020	3.512431	10.322071	16.274904	146.070004	4.596437	2.589027	0.000000
4.304300	7.317465	-7.719068	3.932783	-1.735065	10.430642	3.224053	1.757325	-0.972277	1.020667	3.462777	10.014946	16.059120	146.190295	4.583836	2.592111	0.000000
4.320983	7.844746	-7.276284	5.047796	-1.221878	11.877970	2.972014	1.331243	-0.729205	1.053369	3.382311	9.740323	15.821769	146.146560	4.570770	2.594718	0.000000
4.337667	8.172930	-6.729008	6.607675	-0.686153	13.178091	2.511782	0.895777	-0.480911	1.105039	3.282619	9.487968	15.574966	145.967361	4.557377	2.596887	0.000000
4.354350	8.264459	-6.135722	8.610037	-0.126193	14.199180	1.928890	0.459657	-0.232288	1.144931	3.171151	9.263760	15.325566	145.691896	4.543851	2.598681	0.000000
4.371033	8.093415	-5.550061	11.019991	0.476563	14.793469	1.333645	0.034799	0.009982	1.155914	3.046400	9.085954	15.068190	145.363533	4.530362	2.600133	0.000000
4.387717	7.654616	-5.016749	13.803745	1.148711	14.814834	0.828713	-0.364811	0.238049	1.140226	2.898759	8.972086	14.785859	145.024771	4.516992	2.601270	0.000000
4.404400	6.968498	-4.576892	16.912043	1.927871	14.148238	0.487196	-0.726289	0.444681	1.113637	2.720845	8.929909	14.462079	144.709664	4.503751	2.602122	0.000000
4.421083	6.071387	-4.268618	20.177804	2.860267	12.743933	0.351781	-1.038258	0.623481	1.094132	2.516286	8.950741	14.094819	144.440080	4.490631	2.602714	0.000000
4.437767	4.999695	-4.114492	23.503749	3.972674	10.644692	0.438776	-1.290385	0.768633	1.092898	2.298739	9.011386	13.701597	144.227026	4.477652	2.603071	0.000000
4.454450	3.776578	-4.097730	26.835339	5.224041	7.990114	0.732237	-1.477338	0.877126	1.107921	2.086921	9.082988	13.314376	144.076333	4.464858	2.603226	0.000000
4.471133	2.404412	-4.150800	30.156003	6.483885	4.996746	1.179946	-1.602446	0.950824	1.125940	1.900098	9.142666	12.969822	143.989881	4.452304	2.603225	0.000000
4.487817	0.862939	-4.174116	33.457339	7.568443	1.921125	1.704474	-1.674359	0.994586	1.135766	1.753360	9.189139	12.702033	143.952100	4.440049	2.603118	0.000000
4.504500	-0.888215	-4.073326	36.722836	8.310491	-1.009851	2.225182	-1.699978	1.012293	1.139134	1.653193	9.250818	12.538367	143.916820	4.428113	2.602949	0.000000
4.521183	-2.894313	-3.790892	39.922086	8.618334	-3.702831	2.681697	-1.680522	1.004628	1.149273	1.594687	9.374361	12.493633	143.817308	4.416453	2.602754	0.000000
4.537867	-5.169040	-3.315867	42.989445	8.493389	-6.266284	3.048329	-1.612840	0.969819	1.181391	1.562767	9.599018	12.564939	143.592276	4.404974	2.602554	0.000000
4.554550	-7.648971	-2.674905	45.786705	8.006933	-8.934803	3.330132	-1.493911	0.906168	1.239348	1.536483	9.927265	12.729820	143.205057	4.393579	2.602362	0.000000
4.571233	-10.182776	-1.919047	48.150852	7.265468	-11.807532	3.547269	-1.324936	0.814359	1.305348	1.492179	10.306868	12.945913	142.656088	4.382221	2.602182	0.000000
4.587917	-12.581072	-1.110091	50.329705	6.384722	-14.534037	3.723077	-1.112923	0.698342	1.345345	1.408111	10.646631	13.160233	141.999063	4.370915	2.602015	0.000000
4.604600	-14.678699	-0.302405	51.514207	5.469640	-16.317977	3.879359	-0.871415	0.565742	1.329634	1.273211	10.865281	13.328372	141.336669	4.359680	2.601860	0.000000
4.621283	-16.364052	0.470818	51.276708	4.602500	-16.471830	4.035228	-0.620604	0.427922	1.251789	1.092043	10.933968	13.424267	140.767334	4.348474	2.601720	0.000000
4.637967	-17.595182	1.191939	49.353652	3.848083	-15.006907	4.210562	-0.381527	0.296714	1.133518	0.880169	10.877296	13.437934	140.329770	4.337210	2.601602	0.000000
4.654650	-18.413830	1.839371	45.809218	3.267686	-12.554225	4.431834	-0.164303	0.177805	1.014242	0.655984	10.746058	13.375701	140.021656	4.325876	2.601523	0.000000
4.671333	-18.929038	2.384351	41.088941	2.914732	-9.838751	4.729363	0.035470	0.068716	0.932954	0.436384	10.590473	13.259440	139.866851	4.314590	2.601510	0.000000
4.688017	-19.258777	2.818195	35.850035	2.804897	-7.405864	5.125781	0.223631	-0.033841	0.912821	0.236658	10.436670	13.114329	139.932953	4.303484	2.601595	0.000000
4.704700	-19.474079	3.173906	31.353275	2.897825	-5.595328	5.628726	0.395267	-0.127102	0.956229	0.070200	10.278884	12.954644	140.271643	4.292550	2.601824	0.000000
4.721383	-19.600021	3.507198	26.865079	3.118828	-4.503811	6.230930	0.541799	-0.206244	1.050658	0.055555	10.103034	12.780845	140.845776	4.281652	2.602253	0.000000
4.738067	-19.654660	3.861155	22.474965	3.394646	-4.003368	6.913556	0.666094	-0.272879	1.175461	0.143161	9.908565	12.584593	141.521228	4.270652	2.602958	0.000000
4.754750	-19.659411	4.254695	18.284246	3.668258	-3.854749	7.651653	0.784361	-0.336124	1.308184	0.203356	9.704913	12.355880	142.136464	4.259457	2.604012	0.000000
4.771433	-19.614252	4.692527	14.384733	3.897198	-3.837355	8.418171	0.914411	-0.405999	1.434094	0.249115	9.504933	12.091127	142.582749	4.247970	2.605448	0.000000
4.788117	-19.486724	5.177108	10.826720	4.051725	-3.826795	9.185833	1.063074	-0.486349	1.548619	0.288787	9.322739	11.798622	142.829974	4.236051	2.607222	0.000000
4.804800	-19.230764	5.716428	7.620789	4.114924	-3.802482	9.931104	1.220745	-0.571770	1.649031	0.320275	9.166761	11.498917	142.900010	4.223503	2.609212	0.000000
4.821483	-18.820034	6.320363	4.772874	4.087545	-3.803918	10.639700	1.366242	-0.650348	1.726720	0.330452	9.035876	11.222171	142.831744	4.210129	2.611265	0.000000
4.838167	-18.282281	6.985418	2.335858	3.992811	-3.872077	11.307954	1.481637	-0.711992	1.769855	0.302040	8.932121	11.003792	142.659042	4.195853	2.613225	0.000000
4.854850	-17.705905	7.683349	0.428453	3.870073	-4.021102	11.938289	1.568518	-0.757595	1.775796	0.224874	8.878777	10.877382	142.399912	4.180820	2.614960	0.000000
4.871533	-17.194747	8.366840	-0.906169	3.760922	-4.252067	12.532545	1.649742	-0.800017	1.759453	0.102634	8.915736	10.866493	142.065663	4.165301	2.616398	0.000000
4.888217	-16.807489	8.991482	-1.636042	3.693757	-4.579635	13.084849	1.753356	-0.855041	1.744601	0.051445	9.071362	10.980058	141.679178	4.149509	2.617533	0.000000
4.904900	-16.540625	9.533716	-1.820143	3.677401	-5.049004	13.577885	1.896529	-0.932332	1.747059	0.223094	9.342713	11.210490	141.277249	4.133503	2.618401	0.000000
4.921583	-16.356127	9.988330	-1.570180	3.713751	-5.727446	13.988095	2.081902	-1.033384	1.767372	0.397650	9.698289	11.525553	140.903129	4.117268	2.619051	0.000000
4.938267	-16.222558	10.355129	-0.988635	3.809368	-6.654060	14.292996	2.305130	-1.155762	1.790872	0.553572	10.083676	11.861381	140.602016	4.100860	2.619524	0.000000
4.954950	-16.144445	10.630151	-0.130835	3.969916	-7.780763	14.473614	2.567307	-1.300097	1.790536	0.663166	10.432971	12.140241	140.414750	4.084491	2.619832	0.000000
4.971633	-16.152856	10.808217	0.973280	4.194309	-8.972831	14.515939	2.877742	-1.471649	1.739354	0.706553	10.699030	12.306726	140.367613	4.068458	2.619939	0.000000
4.988317	-16.261227	10.891787	2.250378	4.480723	-10.073633	14.411915	3.242001	-1.673589	1.625762	0.685539	10.871362	12.348875	140.465936	4.052968	2.619756	0.000000
5.005000	-16.435396	10.895700	3.550561	4.831449	-10.967013	14.157751	3.650491	-1.900557	1.458163	0.623928	10.964468	12.294649	140.695474	4.038034	2.619166	0.000000
5.021683	-16.607495	10.848695	4.697143	5.242810	-11.594519	13.751282	4.078273	-2.138538	1.256971	0.556856	11.004228	12.197788	141.022636	4.023501	2.618057	0.000000
5.038367	-16.705103	10.792324	5.560060	5.694942	-11.941986	13.190915	4.492063	-2.368779	1.045430	0.518349	11.022875	12.120449	141.390346	4.009140	2.616378	0.000000
5.055050	-16.665237	10.769425	6.087716	6.163048	-12.019674	12.476307	4.859239	-2.572848	0.849765	0.531901	11.052673	12.114723	141.718043	3.994721	2.614170	0.000000
5.071733	-16.443408	10.805664	6.302042	6.638603	-11.848017	11.607573	5.157069	-2.737855	0.700369	0.603767	11.113036	12.207406	141.907416	3.980093	2.611545	0.000000
5.088417	-16.024036	10.905036	6.273149	7.139049	-11.456081	10.584970	5.375939	-2.858302	0.623075	0.721139	11.192861	12.392161	141.870596	3.965243	2.608642	0.000000
5.105100	-15.421969	11.037485	6.086701	7.702435	-10.886510	9.411714	5.513656	-2.932893	0.625561	0.857920	11.240964	12.631174	141.586952	3.950260	2.605606	0.000000
5.121783	-14.671344	11.188840	5.815473	8.369752	-10.196781	8.092769	5.569716	-2.961304	0.692806	0.983713	11.178507	12.867449	141.130872	3.935257	2.602570	0.000000
5.138467	-13.803613	11.329057	5.488923	9.170443	-9.458140	6.630904	5.546918	-2.945104	0.798953	1.071844	10.934915	13.045747	140.634099	3.920334	2.599647	0.000000
5.155150	-12.833745	11.414540	5.105846	10.130683	-8.750092	5.032093	5.458897	-2.892012	0.920461	1.103712	10.482922	13.131850	140.222358	3.905612	2.596904	0.000000
5.171833	-11.765469	11.380694	4.616512	11.287029	-8.144659	3.317432	5.332911	-2.817464	1.040326	1.069320	9.852230	13.120950	139.971041	3.891272	2.594349	0.000000
5.188517	-10.600523	11.159437	3.906795	12.677490	-7.686770	1.523233	5.200282	-2.739181	1.149964	0.968191	9.123347	13.034708	139.893945	3.877511	2.591914	0.000000
5.205200	-9.353216	10.703880	2.957737	14.319169	-7.382157	-0.321352	5.086162	-2.671379	1.244040	0.809827	8.394678	12.912131	139.957301	3.864478	2.589481	0.000000
5.221883	-8.072010	10.001204	1.817326	16.190955	-7.199191	-2.222032	5.007917	-2.623865	1.311241	0.610082	7.743656	12.799216	140.104839	3.852264	2.586938	0.000000
